<?xml version="1.0" encoding="UTF-8"?>
<svg id="Capa_2" data-name="Capa 2" xmlns="http://www.w3.org/2000/svg" viewBox="0 0 178.23 90.89">
  <defs>
    <style>
      .cls-1 {
        fill: #fff;
      }

      .cls-2 {
        fill: red;
      }
    </style>
  </defs>
  <g id="Capa_1-2" data-name="Capa 1">
    <g>
      <g>
        <path class="cls-1" d="M0,84.08v-21.63H24.2v3.93H4.94v4.78H22.41v3.93H4.94v5.05H24.2v3.93H0Z"/>
        <path class="cls-1" d="M26.61,84.23v-3.48h15.13c.86,0,1.3-.47,1.3-1.42s-.43-1.39-1.3-1.39h-9.79c-1.83,0-3.22-.41-4.17-1.23-.95-.82-1.42-1.99-1.42-3.53s.48-2.75,1.44-3.59,2.34-1.26,4.15-1.26h14.08v3.48h-13.86c-.89,0-1.33,.42-1.33,1.27,0,.42,.12,.76,.37,1,.25,.24,.56,.36,.96,.36h10.37c1.6,0,2.83,.41,3.69,1.23,.85,.82,1.28,2,1.28,3.56s-.43,2.8-1.3,3.68-2.09,1.32-3.67,1.32h-15.93Z"/>
        <path class="cls-1" d="M50.14,90.89v-22.39h11.42c2.76,0,4.91,.67,6.45,2,1.54,1.33,2.32,3.26,2.32,5.78s-.77,4.48-2.32,5.81c-1.54,1.33-3.69,2-6.45,2h-6.95v6.81h-4.48Zm11.42-18.91h-6.95v8.62h6.95c1.34,0,2.36-.36,3.07-1.07,.71-.72,1.06-1.8,1.06-3.25s-.35-2.51-1.06-3.22c-.71-.72-1.73-1.07-3.07-1.07Z"/>
        <path class="cls-1" d="M77.34,84.08c-1.67,0-2.94-.41-3.83-1.24s-1.33-2.01-1.33-3.54,.44-2.68,1.33-3.51,2.16-1.24,3.83-1.24h11.86v-.73c0-1.23-.62-1.85-1.85-1.85h-13.09v-3.48h14.26c1.87,0,3.2,.42,3.98,1.26,.78,.84,1.17,2.01,1.17,3.53v10.8h-16.33Zm.8-3.48h11.05v-2.57h-11.05c-.39,0-.69,.12-.91,.35-.22,.23-.32,.54-.32,.92s.11,.7,.32,.94c.22,.24,.52,.36,.91,.36Z"/>
        <path class="cls-1" d="M105.21,84.23c-2.76,0-4.91-.67-6.45-2.01-1.54-1.34-2.32-3.31-2.32-5.92s.77-4.6,2.32-5.95c1.54-1.34,3.69-2.01,6.45-2.01h10.34v3.48h-10.34c-1.34,0-2.36,.36-3.07,1.09-.71,.73-1.06,1.86-1.06,3.39s.35,2.63,1.06,3.36c.71,.73,1.73,1.09,3.07,1.09h10.65v3.48h-10.65Z"/>
        <path class="cls-1" d="M118.15,65.93v-3.42h4.54v3.42h-4.54Zm.03,18.16v-15.58h4.48v15.58h-4.48Z"/>
        <path class="cls-1" d="M134.2,84.23c-2.76,0-4.91-.67-6.45-2.01-1.54-1.34-2.32-3.31-2.32-5.92s.77-4.6,2.32-5.95c1.54-1.34,3.69-2.01,6.45-2.01h5.71c2.76,0,4.91,.67,6.45,2.01s2.32,3.32,2.32,5.95-.77,4.57-2.32,5.92c-1.54,1.34-3.69,2.01-6.45,2.01h-5.71Zm0-3.48h5.71c1.34,0,2.36-.36,3.07-1.09,.71-.73,1.07-1.85,1.07-3.36s-.36-2.66-1.07-3.39c-.71-.73-1.73-1.09-3.07-1.09h-5.71c-1.34,0-2.36,.36-3.07,1.09-.71,.73-1.06,1.86-1.06,3.39s.35,2.63,1.06,3.36c.71,.73,1.73,1.09,3.07,1.09Z"/>
        <path class="cls-2" d="M150.07,84.08l8.27-10.8-8.27-10.83h6.02l6.64,8.87h2.84l6.64-8.87h6.02l-8.27,10.83,8.27,10.8h-6.05l-6.61-8.84h-2.84l-6.61,8.84h-6.05Z"/>
      </g>
      <g>
        <path class="cls-1" d="M66.32,49.28v-1.65m-37.59,8.38v.25l.13-.09-.13-.17Zm0-6.07v-2.34"/>
        <path class="cls-1" d="M30.19,22.58c-.18,.33-.53,.54-.89,.53-.42-.01-.67-.3-.71-.35-.8-.66-2.43-2.2-3.22-4.73-1-3.21,.03-5.88,.54-7.18,.45-1.15,1.4-3.11,1.97-2.98,.43,.1,.33,1.31,.54,4.55,.12,1.88,.27,4.07,.71,6.31,.33,1.67,.77,3,1.07,3.85Z"/>
        <path class="cls-1" d="M65.94,23.28c-.06-.11-.33-.53-.89-.7-.41-.12-.75-.04-.89,0,.6-1.34,1.38-3.38,1.79-5.96,.82-5.13-.39-8.71,.36-8.93,.66-.2,2.47,2.29,3.04,5.08,1.04,5.12-2.47,9.44-3.4,10.51Z"/>
        <path class="cls-1" d="M57.83,46.52l-2.32,.18c.09,1.07,.04,2.11-.12,3.13-.32,.42-.63,.77-.89,1.04-.7,.71-1.38,1.39-2.5,1.75-.44,.15-1.12,.36-1.96,.18-.82-.18-1.37-.64-1.61-.88v-4.56c.84-1.17,1.68-1.6,2.32-1.75,.89-.21,1.44,.08,1.96-.35,.53-.44,.76-1.38,.36-2.1-.42-.76-1.37-.95-1.97-.88-1.15,.14-2.01,1.32-2.32,1.75-.35,.49-.5,.87-.8,1.08,0-.01,0-.02,0-.03-.21,.1-.47,.21-.76,.23-.28-.02-.55-.12-.76-.23,0,.01,0,.02,0,.03-.3-.22-.46-.6-.81-1.08-.31-.43-1.17-1.62-2.32-1.75-.6-.07-1.54,.11-1.96,.88-.4,.73-.17,1.67,.35,2.1,.53,.43,1.08,.14,1.97,.35,.64,.15,1.48,.58,2.32,1.75v4.56c-.24,.24-.79,.7-1.61,.88-.84,.18-1.52-.03-1.96-.18-1.13-.36-1.81-1.04-2.5-1.75-.29-.29-.63-.68-.99-1.17-.21-1.07-.29-2.17-.24-3.28l-2.32-.1c-.09,2.04,.2,4.03,.85,5.93,.63,1.84,1.49,4.37,3.96,6.17,1.76,1.28,3.98,1.93,6.18,1.93,2.06,0,4.1-.56,5.73-1.7,2.34-1.63,3.24-4.02,3.83-5.6,.78-2.08,1.08-4.27,.9-6.53Zm-6.08,10.27c-2.55,1.78-6.58,1.69-9.18-.2-.85-.62-1.46-1.39-1.93-2.19,.58,.29,1.11,.42,1.43,.49,2.44,.56,4.47-.47,5.14-.85,.66,.38,2.7,1.41,5.14,.85,.34-.08,.88-.21,1.48-.51-.47,.88-1.11,1.74-2.08,2.41Z"/>
        <path class="cls-1" d="M74.81,25.36h-4.3s-.08-.07-.13-.11c1.55-2.25,2.59-4.77,3.04-7.37,1.12-6.47-.8-10.31-2.6-12.39-1.89-2.18-4.98-3.93-7.17-4.06-1.11-.07-1.77,.3-2.13,.62-1.07,.96-.72,2.42-.41,3.71,.07,.3,.15,.62,.21,.93,.61,3.1-.11,6.63-2.15,10.5-1.22,.31-2.46,.04-3.25-.74-.77-.75-.87-1.74-.88-2.14l-.04-1.31-1.32,.12c-1.97,.18-3.93,.01-5.82-.49-3.34-.88-5.74-2.61-7.15-3.92l-2.18-1.99,.07,2.92c.03,1.23,.16,2.48,.38,3.69,.19,1.05,.45,2.09,.78,3.11l-4.24,.45c-2.01-3.44-2.9-6.86-2.63-10.16,.08-1.02,.26-1.89,.41-2.67,.3-1.48,.58-2.88-.58-3.69-.56-.39-1.3-.48-2.18-.26-2.35,.58-6.1,3.56-8.06,7.37-2.36,4.59-1.57,9.1-1.19,11.27,.4,2.3,1.18,4.52,2.3,6.6h-4.04c-.63,0-1.14,.5-1.14,1.12v1.83c0,.62,.51,1.12,1.14,1.12h1.1v.77c0,3.81,1.91,7.2,4.84,9.29-.66,1.2-1,2.55-1,3.94,0,1.85,.62,3.63,1.75,5.08,.06,.08,.13,.16,.19,.24-.07,.07-.13,.15-.19,.23v14.76h2.51v-16.13c-.22-.21-.41-.44-.59-.68-.75-1-1.16-2.23-1.16-3.49,0-.96,.23-1.88,.66-2.72,1.44,.62,3.03,.96,4.7,.96,6.46,0,11.71-5.15,11.71-11.47v-.77h6.26v.77c0,6.33,5.25,11.47,11.71,11.47,1.89,0,3.68-.44,5.27-1.23,.53,.9,.81,1.92,.81,2.98,0,1.27-.41,2.48-1.16,3.49-.16,.22-.34,.43-.53,.63l-.08,.08v16.11h3.01v-15.4c-.07-.07-.14-.13-.22-.2,.08-.11,.15-.22,.22-.33,.82-1.31,1.26-2.82,1.26-4.39s-.42-3.02-1.22-4.31c-.04-.07-.08-.13-.12-.2,.58-.34,1.11-.74,1.59-1.19,0,0,0-.01,.01-.02,1.13-1.28,1.98-2.82,2.45-4.5h0c.27-.97,.41-1.97,.41-3v-.77h1.1c.63,0,1.14-.5,1.14-1.12v-1.83c0-.62-.51-1.12-1.14-1.12Zm-49.79,9.72l-.15,.12c-.94-1.39-1.48-3.05-1.48-4.84v-2.26h9.94v.04c.05,.17,0,.35-.15,.45l-1.06,.84-7.1,5.65Zm13.55-5.74l-.11,.09-10.07,8-.61,.48c-.53-.31-1.02-.66-1.47-1.07l.29-.23h0l7.98-6.34c.3-.24,.53-.53,.7-.85,.22-.41,.31-.87,.29-1.34h3.21l.1,.37c.08,.33-.04,.67-.3,.88Zm14.49,1.02v-2.26h9.94v.04c.05,.17-.01,.35-.15,.45l-1.06,.84-7.25,5.77c-.94-1.39-1.48-3.05-1.48-4.84Zm15.18-1.02l-.11,.09-10.67,8.49c-.53-.31-1.02-.66-1.47-1.07l8.27-6.57c.3-.24,.53-.53,.7-.85,.21-.41,.31-.87,.28-1.34h3.21l.09,.37c.08,.33-.04,.67-.3,.88Zm-.58-4.56l-.46,.58H26.45c-1.37-2.18-2.28-4.54-2.71-7.02-.34-1.91-1.03-5.88,.96-9.75,1.81-3.53,5.03-5.71,6.33-6.08-.04,.31-.12,.72-.2,1.08-.16,.8-.36,1.79-.46,2.95-.32,4.05,.82,8.18,3.4,12.3l.42,.66,9.02-.96-.59-1.49c-.53-1.34-.93-2.74-1.18-4.15-.03-.18-.06-.37-.09-.55,1.8,1.2,3.79,2.1,5.86,2.65,1.79,.47,3.64,.69,5.51,.63,.2,.78,.6,1.74,1.44,2.56,1.59,1.55,4.07,2,6.33,1.15l.44-.16,.22-.4c2.49-4.54,3.37-8.77,2.63-12.55-.07-.36-.15-.7-.23-1.02-.1-.42-.25-1.02-.25-1.34,.87-.11,3.7,.99,5.63,3.21,2.12,2.45,2.81,5.94,2.04,10.39-.45,2.61-1.6,5.14-3.31,7.31Z"/>
        <path class="cls-1" d="M26.41,48.75c-.07,.08-.13,.15-.19,.23v-.47c.06,.08,.13,.16,.19,.24Z"/>
        <path class="cls-1" d="M66.32,47.62l.08-.08c.2-.2,.37-.41,.53-.63l-.61,.7Z"/>
      </g>
    </g>
  </g>
</svg>